<svg xmlns="http://www.w3.org/2000/svg" viewBox="0 0 1024 1024" width="512" height="512">
  <title>TwoTeaspoons Logo</title>
  <g transform="translate(0,1024) scale(0.1,-0.1)" fill="#C97B5D">
    <path d="M6240 8684 c-235 -27 -343 -46 -540 -95 -130 -32 -390 -116 -555
-179 -489 -187 -766 -251 -1144 -266 -244 -9 -416 -32 -619 -83 -444 -111
-870 -346 -1092 -603 -145 -168 -205 -305 -205 -473 0 -92 3 -105 32 -168 99
-209 384 -337 750 -337 495 0 1002 232 1328 608 101 117 185 244 289 441 101
191 149 261 243 354 126 124 278 219 446 277 285 99 631 103 897 12 191 -66
362 -209 445 -372 50 -99 67 -177 72 -336 8 -223 -26 -407 -123 -669 -104
-279 -338 -649 -559 -885 -29 -30 -71 -77 -95 -103 -58 -64 -269 -253 -405
-364 -266 -215 -591 -440 -1336 -923 -691 -449 -1044 -707 -1362 -998 -219
-200 -393 -404 -497 -582 -80 -138 -145 -320 -138 -389 l3 -35 39 63 c88 144
317 340 536 459 168 92 428 190 619 233 88 20 101 26 156 74 91 77 247 201
375 296 251 186 335 245 752 515 71 47 765 462 1068 640 619 363 1031 663
1350 983 508 510 808 1084 861 1647 45 477 -184 885 -621 1104 -93 47 -282
106 -412 130 -109 20 -463 35 -558 24z m-2226 -698 c28 -11 24 -13 -70 -30
-523 -93 -974 -290 -1276 -560 -53 -47 -114 -106 -135 -131 -20 -25 -41 -45
-46 -45 -18 0 1 82 34 149 40 82 198 244 307 316 248 162 551 273 862 315 81
10 285 2 324 -14z m287 -310 c-27 -148 -126 -313 -280 -467 -150 -150 -295
-254 -476 -344 -205 -101 -402 -160 -606 -180 -108 -11 -349 27 -349 56 0 5
24 9 53 9 65 0 241 25 327 46 290 70 617 237 855 436 143 119 317 309 415 453
19 28 41 58 50 69 15 18 15 18 18 -2 2 -12 -1 -46 -7 -76z M7370 3689 c-238
-31 -452 -83 -645 -156 -168 -63 -354 -156 -515 -258 -152 -96 -220 -130 -325
-162 -225 -68 -486 -70 -870 -8 -782 128 -1419 91 -2048 -119 -379 -127 -699
-343 -794 -536 -43 -89 -53 -179 -26 -241 65 -146 212 -205 483 -196 189 7
300 31 520 115 118 45 167 67 495 222 117 55 342 152 438 188 137 52 168 63
267 91 465 133 864 146 1235 40 130 -37 194 -64 465 -197 369 -181 582 -249
882 -282 623 -67 1238 196 1461 625 41 79 58 125 73 203 19 99 18 164 -5 244
-63 228 -277 373 -626 423 -108 16 -359 18 -465 4z m436 -139 c77 -14 204 -51
204 -60 0 -4 -88 -10 -197 -14 -256 -9 -352 -19 -558 -61 -289 -58 -518 -141
-838 -301 -165 -83 -188 -92 -182 -72 39 130 275 284 615 401 144 49 261 76
460 106 80 13 427 13 496 1z m484 -399 c-46 -207 -247 -415 -550 -566 -245
-123 -598 -196 -874 -181 -327 17 -614 101 -826 241 -62 41 -174 144 -166 153
3 2 19 -3 38 -11 282 -128 494 -187 780 -217 341 -35 703 27 1018 176 212 101
398 245 525 408 33 42 61 72 64 65 2 -6 -2 -37 -9 -68z"/>
  </g>
</svg>
